<?xml version="1.0" encoding="utf-8"?>
<!-- Generator: Adobe Illustrator 18.0.0, SVG Export Plug-In . SVG Version: 6.00 Build 0)  -->
<!DOCTYPE svg PUBLIC "-//W3C//DTD SVG 1.1//EN" "http://www.w3.org/Graphics/SVG/1.1/DTD/svg11.dtd">
<svg version="1.1" id="Layer_1" xmlns="http://www.w3.org/2000/svg" xmlns:xlink="http://www.w3.org/1999/xlink" x="0px" y="0px"
	 viewBox="0 0 145 145" enable-background="new 0 0 145 145" xml:space="preserve">
<g>
	<g>
		<g>
			<path fill-rule="evenodd" clip-rule="evenodd" fill="#8BCFBC" d="M72.5,0.9c39.5,0,71.6,32,71.6,71.6c0,39.5-32,71.6-71.6,71.6
				c-39.5,0-71.6-32-71.6-71.6C0.9,33,33,0.9,72.5,0.9z"/>
		</g>
	</g>
	<g>
		<path fill="#FFFFFF" d="M117.2,67.4H90.6l3.5-15.6c0.2-1-0.4-2-1.4-2.2l-12.3-2.8l0.8-11.5c0.1-1-0.7-1.9-1.7-2L28,28.2
			c-0.5,0-1,0.1-1.4,0.5c-0.4,0.4-0.6,0.9-0.6,1.4v48.5c0,0.7,0.4,1.3,1,1.6c0.3,0.4,0.7,0.6,1.1,0.7l21.7,4.9v15.8
			c0,1,0.8,1.9,1.9,1.9h31v9.7H66.2c-1,0-1.9,0.8-1.9,1.9c0,1,0.8,1.9,1.9,1.9h36.3c1,0,1.9-0.8,1.9-1.9c0-1-0.8-1.9-1.9-1.9H86.2
			v-9.7h31c1,0,1.9-0.8,1.9-1.9V69.2C119.1,68.2,118.2,67.4,117.2,67.4z M29.6,32.1l47.7,4.8l-0.6,9.1l-38.9-8.8
			c-0.5-0.1-1,0-1.4,0.2c-0.4,0.3-0.7,0.7-0.8,1.2l-6,26.6V32.1z M30.6,77.7l8.2-36.5l51.2,11.6l-3.3,14.7l-0.8,3.7l-4.1,18.2
			L30.6,77.7z M115.4,99.7h-62V86.6l29.4,6.7c0.1,0,0.3,0,0.4,0c0.3,0,0.7-0.1,1-0.3c0.4-0.3,0.7-0.7,0.8-1.2l4.7-20.8h25.6V99.7z
			 M77.6,78.7L38.8,70c-1-0.2-2,0.4-2.2,1.4c-0.2,1,0.4,2,1.4,2.2l38.8,8.8c0.1,0,0.3,0,0.4,0c0.8,0,1.6-0.6,1.8-1.4
			C79.2,80,78.6,79,77.6,78.7z M79.5,70.8l-20.9-4.7c-1-0.2-2,0.4-2.2,1.4c-0.2,1,0.4,2,1.4,2.2l21,4.7c0.1,0,0.3,0,0.4,0
			c0.8,0,1.6-0.6,1.8-1.4C81.2,72,80.5,71.1,79.5,70.8z M59.4,62.8l20.9,4.7c0.1,0,0.3,0,0.4,0c0.8,0,1.6-0.6,1.8-1.4
			c0.2-1-0.4-2-1.4-2.2l-21-4.7c-1-0.2-2,0.4-2.2,1.4C57.8,61.6,58.4,62.6,59.4,62.8z M61.4,56.2l21,4.7c0.1,0,0.3,0,0.4,0
			c0.8,0,1.6-0.6,1.8-1.4c0.2-1-0.4-2-1.4-2.2l-20.9-4.7c-1-0.2-2,0.4-2.2,1.4C59.8,55,60.4,56,61.4,56.2z M39.3,65.9l12,2.7
			c0.1,0,0.3,0,0.4,0c0.3,0,0.7-0.1,1-0.3c0.4-0.3,0.7-0.7,0.8-1.2l3.1-13.8c0.2-1-0.4-2-1.4-2.2l-12-2.7c-0.5-0.1-1,0-1.4,0.2
			c-0.4,0.3-0.7,0.7-0.8,1.2l-3.1,13.8C37.6,64.7,38.3,65.7,39.3,65.9z M44.2,52.5l8.3,1.9l-2.3,10.2l-8.3-1.9L44.2,52.5z"/>
	</g>
</g>
</svg>
