<?xml version="1.0" encoding="utf-8"?>
<!-- Generator: Adobe Illustrator 18.0.0, SVG Export Plug-In . SVG Version: 6.00 Build 0)  -->
<!DOCTYPE svg PUBLIC "-//W3C//DTD SVG 1.1//EN" "http://www.w3.org/Graphics/SVG/1.1/DTD/svg11.dtd">
<svg version="1.1" id="Layer_1" xmlns="http://www.w3.org/2000/svg" xmlns:xlink="http://www.w3.org/1999/xlink" x="0px" y="0px"
	 viewBox="0 0 145 145" enable-background="new 0 0 145 145" xml:space="preserve">
<g>
	<g>
		<path fill-rule="evenodd" clip-rule="evenodd" fill="#8BCFBC" d="M72.5,0.9c39.5,0,71.6,32,71.6,71.6c0,39.5-32,71.6-71.6,71.6
			c-39.5,0-71.6-32-71.6-71.6C0.9,33,33,0.9,72.5,0.9z"/>
	</g>
	<g>
		<path fill="#FFFFFF" d="M116.8,72c0.3-0.4,0.7-1,0.9-1.6c2-5.3-2.8-14.2-14.5-27c-3.9-4.5-7.9-8-11.8-10.8c0.3-2,2-3.5,4-3.5
			c1.1,0,1.9-0.9,1.9-1.9c0-1.1-0.9-1.9-1.9-1.9c-3.3,0-6.2,2.1-7.4,5C71.3,20,56.8,22.7,55.4,22.9c-0.9,0.1-8.2,1.4-13.9,7
			c-1,0.8-9.2,8.2-9.2,20.7c0,0.5,0,4.1,2.5,6.7c1,1,2.2,1.8,3.7,2.2c-2.6,3.4-4.6,7.2-6.1,11.2c-6.4,1.7-11,7.6-11,14.4
			c0,6.6,4.4,12.4,10.7,14.3c6,17.6,22.3,29.3,40.9,29.3c18.6,0,34.9-11.7,40.9-29.2c6.4-1.8,10.9-7.6,10.9-14.3
			C124.7,79.5,121.6,74.6,116.8,72z M36,50.8C36,50.8,36,50.8,36,50.8c0-11.3,7.8-17.9,7.9-18c0,0,0.1-0.1,0.1-0.1
			c5-5,11.8-6,11.9-6c0.1,0,0.1,0,0.2,0c0.2,0,23.1-4.7,44.3,19.3c14.3,15.6,14.4,21.4,13.8,23.1c-0.3,0.9-1,1.2-1.4,1.3
			c-0.3-0.2-0.6-0.4-0.9-0.7c-9.3-6.6-37.7-26.8-70.6-13.5c-1.6-0.1-2.9-0.6-3.8-1.5C36,53.2,36,50.8,36,50.8z M112,96
			c-0.7,0.1-1.2,0.6-1.5,1.3c-5.2,16.5-20.3,27.6-37.6,27.6c-17.3,0-32.4-11.1-37.6-27.6c-0.2-0.7-0.8-1.2-1.4-1.3
			c-5.1-1.1-8.8-5.6-8.8-10.8c0-5.3,3.8-9.9,9-10.9c0.7-0.1,1.2-0.6,1.5-1.3c1.7-5,4.3-9.5,7.7-13.5c30.7-12,57.5,7,66.3,13.3
			c0.3,0.2,0.7,0.5,0.9,0.7c0.3,0.4,0.7,0.6,1.2,0.7c5.3,0.9,9.1,5.5,9.1,10.9C120.9,90.4,117.1,95,112,96z"/>
		<path fill="#FFFFFF" d="M91.8,67.2c-5.3,0-9.8,3.1-12,7.6c-1.7-1.8-4.2-3-6.9-3c-2.7,0-5.2,1.2-6.9,3c-2.1-4.5-6.7-7.6-12-7.6
			c-7.3,0-13.2,5.9-13.2,13.2c0,7.3,5.9,13.2,13.2,13.2c7,0,12.8-5.5,13.2-12.4h0c0-3.1,2.5-5.6,5.6-5.6c3.1,0,5.6,2.5,5.6,5.6h0
			c0.4,6.9,6.2,12.4,13.2,12.4c7.3,0,13.2-5.9,13.2-13.2C105.1,73.2,99.1,67.2,91.8,67.2z M54.1,89.9c-5.2,0-9.4-4.2-9.4-9.4
			c0-5.2,4.2-9.4,9.4-9.4c5.2,0,9.4,4.2,9.4,9.4C63.6,85.7,59.3,89.9,54.1,89.9z M91.8,89.9c-5.2,0-9.4-4.2-9.4-9.4
			c0-5.2,4.2-9.4,9.4-9.4c5.2,0,9.4,4.2,9.4,9.4C101.2,85.7,97,89.9,91.8,89.9z"/>
		<path fill="#FFFFFF" d="M98,96.9c-3.4-0.5-3.3,1.7-1.7,1.7c1.9,0,3.1,1.5,3.1,3.4c0,1.8-1.4,3.3-3.2,3.4c0,0-0.4,0-0.9,0
			c-2.1-0.2-3.9-1-5-1.6c0,0,0,0,0,0c-1.6-0.7-3.1-1.6-4.5-2.5c-2.9-1.8-5.7-3.4-9-3.4v0c0,0,0,0-0.1,0c-2,0-3.6,1.6-3.8,3.5
			c-0.2-2-1.8-3.5-3.8-3.5c0,0,0,0-0.1,0v0c-3.3,0-6,1.7-9,3.4c-1.5,0.9-3,1.8-4.5,2.5c0,0,0,0,0,0c-1.1,0.6-2.9,1.4-5,1.6
			c-0.5,0.1-0.9,0-0.9,0c-1.8-0.1-3.2-1.6-3.2-3.4c0-1.9,1.3-3.4,3.1-3.4c1.6,0,2.1-2.5-1.7-1.7c-2.3,0.5-4,2.5-4,5.1
			c0,1.8,0.8,3.3,2,4.4c1.8,1.8,4.8,2.7,8.9,2.7c0.1,0,0.3,0,0.4,0c13.2,0,16.7-4.7,16.9-4.9l0,0c0.5-0.6,0.8-1.3,0.8-2.1
			c0.1,0.8,0.4,1.5,0.8,2.1v0c0.1,0.2,3.7,4.9,16.9,4.9c0.1,0,0.3,0,0.4,0c4.1,0,7.1-0.9,8.9-2.7c1.2-1.1,2-2.7,2-4.4
			C102,99.4,100.3,97.2,98,96.9z"/>
	</g>
</g>
</svg>
